<?xml version="1.0" standalone="no"?>
<!DOCTYPE svg PUBLIC "-//W3C//DTD SVG 20010904//EN"
 "http://www.w3.org/TR/2001/REC-SVG-20010904/DTD/svg10.dtd">
<svg version="1.0" xmlns="http://www.w3.org/2000/svg"
 width="500.000000pt" height="500.000000pt" viewBox="0 0 500.000000 500.000000"
 preserveAspectRatio="xMidYMid meet">

<g transform="translate(0.000000,500.000000) scale(0.100000,-0.100000)"
fill="#000000" stroke="none">
<path d="M0 2500 l0 -2500 2500 0 2500 0 -2 1007 -3 1008 -1275 2 c-701 2
-1311 2 -1355 2 -44 0 -107 -1 -140 -1 -33 1 -127 1 -210 1 -82 0 -482 0 -888
-2 l-737 -2 0 548 0 547 1759 0 c1663 0 1760 -1 1764 -18 4 -15 5 -15 6 0 1
18 -42 17 789 18 l292 0 0 945 0 945 -2500 0 -2500 0 0 -2500z"/>
<path d="M3764 3072 c6 -11 -4 -13 -50 -12 -33 1 -61 1 -64 0 -3 0 -725 -2
-1605 -3 l-1600 -2 -2 -492 -2 -493 342 0 c714 -1 1167 -5 1167 -10 0 -3 9 -6
20 -6 11 0 20 3 20 6 0 5 753 8 2313 9 l697 1 0 493 0 494 -592 2 c-686 2
-619 1 -637 15 -12 8 -13 8 -7 -2z m-2418 -333 c24 -6 47 -15 50 -20 9 -16
-26 -71 -43 -65 -39 15 -65 17 -98 6 -38 -13 -75 -59 -75 -95 0 -36 37 -82 75
-95 33 -11 59 -9 98 6 11 4 21 -5 32 -27 19 -37 15 -42 -49 -60 -49 -13 -99
-5 -152 26 -92 54 -116 168 -53 257 22 30 111 78 147 78 13 0 43 -5 68 -11z
m2215 0 c49 -17 53 -23 35 -58 -14 -27 -19 -30 -37 -21 -11 6 -34 10 -52 8
-24 -2 -32 -8 -32 -23 0 -14 16 -28 55 -47 69 -35 90 -60 90 -108 0 -97 -128
-141 -229 -79 l-32 19 18 30 c20 35 21 35 59 15 40 -21 81 -19 93 4 12 22 -3
38 -66 70 -70 35 -89 81 -59 140 16 30 67 60 102 61 12 0 36 -5 55 -11z
m-2811 -34 c0 -34 -1 -35 -40 -35 l-40 0 0 -140 0 -140 -40 0 -40 0 0 140 0
140 -45 0 c-45 0 -45 0 -45 35 l0 35 125 0 125 0 0 -35z m270 0 l0 -35 -60 0
-60 0 0 -35 0 -35 60 0 60 0 0 -35 0 -35 -60 0 -60 0 0 -35 0 -35 60 0 60 0 0
-35 0 -35 -100 0 -100 0 0 175 0 175 100 0 100 0 0 -35z m530 -35 l0 -71 58 3
57 3 3 68 3 67 39 0 40 0 0 -175 0 -175 -40 0 -40 0 0 70 0 70 -60 0 -60 0 0
-70 0 -70 -40 0 -40 0 0 175 0 175 40 0 40 0 0 -70z m670 35 c0 -34 -1 -35
-40 -35 l-40 0 0 -140 0 -140 -40 0 -40 0 0 140 0 140 -40 0 c-39 0 -40 1 -40
35 l0 35 120 0 120 0 0 -35z m280 0 l0 -35 -60 0 -60 0 0 -35 0 -35 55 0 55 0
0 -35 0 -35 -55 0 -55 0 0 -35 0 -35 60 0 60 0 0 -35 0 -35 -105 0 -105 0 0
175 0 175 105 0 105 0 0 -35z m293 7 c47 -44 40 -128 -14 -165 l-22 -16 44
-53 c80 -96 78 -88 21 -88 l-51 0 -51 66 -50 67 0 -67 0 -66 -45 0 -45 0 0
176 0 176 94 -4 c82 -3 98 -6 119 -26z m273 -68 c20 -52 40 -92 44 -87 3 4 22
47 40 96 l33 87 43 0 c28 0 44 -4 44 -12 0 -7 7 -78 15 -158 20 -196 22 -180
-24 -180 -38 0 -38 0 -45 46 -3 26 -6 69 -6 95 0 60 -13 63 -30 7 -33 -114
-51 -148 -75 -148 -20 0 -27 12 -56 96 -36 105 -47 105 -48 4 -2 -90 -7 -100
-53 -100 l-39 0 6 48 c7 63 25 263 25 285 0 14 9 17 44 17 l44 0 38 -96z m834
-279 c0 -12 -19 -15 -110 -15 -91 0 -110 3 -110 15 0 12 19 15 110 15 91 0
110 -3 110 -15z"/>
<path d="M2670 2636 c0 -41 2 -46 23 -46 61 0 64 70 4 85 -26 7 -27 6 -27 -39z"/>
</g>
</svg>
